<svg xmlns="http://www.w3.org/2000/svg" viewBox="0 0 32 32">
  <path d="M32,17.969 L32,13.969 L27.219,11.977 C27.086,11.602 26.946,11.24 26.774,10.883 L28.704,6.078 L25.875,3.25 L21.112,5.211 C20.75,5.036 20.378,4.888 19.995,4.75 L17.969,0 L13.969,0 L11.992,4.734 C11.594,4.875 11.211,5.023 10.831,5.203 L6.078,3.294 L3.25,6.122 L5.188,10.833 C5,11.219 4.847,11.614 4.703,12.021 L0,14.031 L0,18.031 L4.706,19.992 C4.852,20.398 5.008,20.794 5.195,21.18 L3.292,25.922 L6.12,28.75 L10.844,26.805 C11.222,26.985 11.61,27.13 12.008,27.266 L14.031,32 L18.031,32 L20.01,27.242 C20.39,27.101 20.765,26.953 21.124,26.781 L25.921,28.703 L28.749,25.875 L26.78,21.102 C26.947,20.743 27.085,20.38 27.218,20.008 L32,17.969 Z M15.969,22 C12.657,22 9.969,19.312 9.969,16 C9.969,12.688 12.657,10 15.969,10 C19.281,10 21.969,12.688 21.969,16 C21.969,19.312 19.281,22 15.969,22 Z"/>
</svg>
